# xmcd CD database file
#
# Track frame offsets:
#	150
#	15400
#	34972
#	55364
#	68875
#	80479
#	98154
#	109268
#	129867
#	144678
#	159604
#	176613
#	196575
#	216009
#	231002
#	244368
#	260148
#	280498
#
# Disc length: 3946 seconds
#
# Revision: 0
# Processed by: cddbd v1.5.2PL0 Copyright (c) Steve Scherf et al.
# Submitted via: CDex 1.70beta2
#
DISCID=060f6812
DTITLE=Apex Jazz Trio - Just In Time
DYEAR=2007
DGENRE=Jazz
TTITLE0=Sweet Georgia Brown
TTITLE1=Moonglow
TTITLE2=Bel Ami
TTITLE3=Petite Fleur
TTITLE4=Isle of Capri
TTITLE5=Please don't talk about me
TTITLE6=Apex Blues
TTITLE7=St. Louis Blues
TTITLE8=Stranger on the shore
TTITLE9=Honey Suckle Rose
TTITLE10=Creole Jazz
TTITLE11=Hello Dolly
TTITLE12=Don't get around much anymore
TTITLE13=Georgia On My Mind
TTITLE14=The old Rugged Cross
TTITLE15=Blueberry Hill
TTITLE16=Cabaret
TTITLE17=Take The A-Train
EXTD=YEAR: 2007
EXTT0=
EXTT1=
EXTT2=
EXTT3=
EXTT4=
EXTT5=
EXTT6=
EXTT7=
EXTT8=
EXTT9=
EXTT10=
EXTT11=
EXTT12=
EXTT13=
EXTT14=
EXTT15=
EXTT16=
EXTT17=
PLAYORDER=
